<svg width="178" height="48" viewBox="0 0 178 48" fill="none" xmlns="http://www.w3.org/2000/svg">
<g clip-path="url(#clip0_961_512)">
<path d="M23.8904 13.9686C27.7474 13.9686 30.8741 10.842 30.8741 6.98525C30.8741 3.12848 27.7474 0.00195312 23.8904 0.00195312C20.0334 0.00195312 16.9067 3.12848 16.9067 6.98525C16.9067 10.842 20.0334 13.9686 23.8904 13.9686Z" fill="#D64444"/>
<path d="M29.2239 11.4932C23.0395 18.8088 23.0415 29.5209 29.2287 36.8342L18.8309 36.8826C24.9499 29.5119 24.8519 18.8005 18.5994 11.5428L29.2239 11.4932Z" fill="#D64444"/>
<path d="M24.0498 47.9979C27.7961 47.9979 30.8331 44.9611 30.8331 41.215C30.8331 37.4689 27.7961 34.4321 24.0498 34.4321C20.3035 34.4321 17.2665 37.4689 17.2665 41.215C17.2665 44.9611 20.3035 47.9979 24.0498 47.9979Z" fill="#D64444"/>
<path d="M41.0143 30.6692C44.8713 30.6692 47.998 27.5427 47.998 23.6859C47.998 19.8292 44.8713 16.7026 41.0143 16.7026C37.1574 16.7026 34.0306 19.8292 34.0306 23.6859C34.0306 27.5427 37.1574 30.6692 41.0143 30.6692Z" fill="#D64444"/>
<path d="M36.5522 29.0578C29.1826 22.9372 18.4706 23.0317 11.2105 29.2819L11.0719 18.8855C18.4958 24.94 29.2066 24.7494 36.4104 18.4351L36.5518 29.0582L36.5522 29.0578Z" fill="#D64444"/>
<path d="M6.78488 30.9242C10.5312 30.9242 13.5682 27.8874 13.5682 24.1413C13.5682 20.3952 10.5312 17.3584 6.78488 17.3584C3.03857 17.3584 0.00158691 20.3952 0.00158691 24.1413C0.00158691 27.8874 3.03857 30.9242 6.78488 30.9242Z" fill="#D64444"/>
<path d="M29.5173 21.5593C31.3241 21.5593 32.7888 20.0947 32.7888 18.288C32.7888 16.4812 31.3241 15.0166 29.5173 15.0166C27.7105 15.0166 26.2457 16.4812 26.2457 18.288C26.2457 20.0947 27.7105 21.5593 29.5173 21.5593Z" fill="#D64444"/>
<path d="M29.8138 21.5456C25.3445 21.9523 21.8217 25.5265 21.4804 30.001L17.9958 26.5978C22.4615 26.1513 25.9516 22.5457 26.2532 18.0684L29.8138 21.546V21.5456Z" fill="#D64444"/>
<path d="M18.3119 32.9369C20.067 32.9369 21.4898 31.5142 21.4898 29.7592C21.4898 28.0042 20.067 26.5815 18.3119 26.5815C16.5569 26.5815 15.1341 28.0042 15.1341 29.7592C15.1341 31.5142 16.5569 32.9369 18.3119 32.9369Z" fill="#D64444"/>
<path d="M29.7369 32.762C31.5438 32.762 33.0085 31.2973 33.0085 29.4906C33.0085 27.6839 31.5438 26.2192 29.7369 26.2192C27.9301 26.2192 26.4654 27.6839 26.4654 29.4906C26.4654 31.2973 27.9301 32.762 29.7369 32.762Z" fill="#D64444"/>
<path d="M26.4815 29.8152C26.0362 25.3497 22.4315 21.8587 17.954 21.5559L21.3275 18.042C21.8126 22.5032 25.4484 25.9623 29.9287 26.2249L26.4819 29.8152H26.4815Z" fill="#D64444"/>
<path d="M18.1682 21.5633C19.9233 21.5633 21.346 20.1406 21.346 18.3857C21.346 16.6307 19.9233 15.208 18.1682 15.208C16.4131 15.208 14.9904 16.6307 14.9904 18.3857C14.9904 20.1406 16.4131 21.5633 18.1682 21.5633Z" fill="#D64444"/>
</g>
<g clip-path="url(#clip1_961_512)">
<path d="M81.8291 16.984C84.5564 14.2567 84.5565 9.83503 81.8294 7.10788C79.1022 4.38073 74.6805 4.38086 71.9532 7.10816C69.2259 9.83547 69.2258 14.2572 71.953 16.9843C74.6801 19.7115 79.1018 19.7113 81.8291 16.984Z" fill="#D64444"/>
<path d="M83.8502 11.4624C84.6501 21.0083 92.2261 28.5816 101.772 29.3778L94.4543 36.7644C93.5692 27.2257 85.9258 19.7209 76.3726 19.0102L83.8502 11.4624Z" fill="#D64444"/>
<path d="M106.004 40.9337C108.653 38.2846 108.653 33.9898 106.005 31.3409C103.356 28.692 99.0609 28.6921 96.4119 31.3412C93.7628 33.9902 93.7627 38.285 96.4116 40.9339C99.0605 43.5828 103.355 43.5827 106.004 40.9337Z" fill="#D64444"/>
<path d="M105.747 16.6847C108.474 13.9574 108.474 9.53571 105.747 6.80856C103.02 4.08141 98.5981 4.08154 95.8708 6.80885C93.1435 9.53615 93.1434 13.9579 95.8706 16.685C98.5977 19.4122 103.019 19.412 105.747 16.6847Z" fill="#D64444"/>
<path d="M101.452 18.7002C91.9129 19.5833 84.4052 27.2247 83.6911 36.7779L76.2418 29.5245C85.7725 28.5563 93.2114 20.8478 93.8403 11.289L101.452 18.7008L101.452 18.7002Z" fill="#D64444"/>
<path d="M81.7232 41.0689C84.3722 38.4199 84.3724 34.125 81.7235 31.4762C79.0746 28.8273 74.7798 28.8274 72.1307 31.4764C69.4817 34.1255 69.4816 38.4203 72.1305 41.0692C74.7793 43.7181 79.0742 43.7179 81.7232 41.0689Z" fill="#D64444"/>
<path d="M91.1755 18.3731C92.4531 17.0955 92.4531 15.0241 91.1756 13.7466C89.8981 12.469 87.8267 12.4691 86.5491 13.7467C85.2714 15.0243 85.2714 17.0957 86.5489 18.3733C87.8265 19.6508 89.8978 19.6508 91.1755 18.3731Z" fill="#D64444"/>
<path d="M91.3754 18.1535C88.5027 21.6013 88.539 26.6196 91.4616 30.025L86.5912 30.0825C89.4333 26.609 89.3516 21.5916 86.3989 18.2124L91.3757 18.1538L91.3754 18.1535Z" fill="#D64444"/>
<path d="M91.2972 34.3415C92.5383 33.1005 92.5383 31.0885 91.2974 29.8475C90.0564 28.6066 88.0444 28.6066 86.8034 29.8477C85.5623 31.0887 85.5623 33.1007 86.8032 34.3417C88.0442 35.5826 90.0562 35.5826 91.2972 34.3415Z" fill="#D64444"/>
<path d="M99.2524 26.1392C100.53 24.8616 100.53 22.7902 99.2525 21.5127C97.975 20.2351 95.9036 20.2352 94.626 21.5128C93.3483 22.7905 93.3483 24.8618 94.6258 26.1394C95.9034 27.4169 97.9748 27.4169 99.2524 26.1392Z" fill="#D64444"/>
<path d="M94.8666 26.3571C91.3942 23.5144 86.3767 23.5947 82.9965 26.5467L82.8973 21.6766C86.3948 24.4881 91.4117 24.3632 94.7655 21.3808L94.8669 26.3568L94.8666 26.3571Z" fill="#D64444"/>
<path d="M83.1533 26.4006C84.3943 25.1596 84.3943 23.1476 83.1534 21.9066C81.9124 20.6656 79.9004 20.6657 78.6594 21.9067C77.4183 23.1478 77.4183 25.1598 78.6592 26.4008C79.9002 27.6417 81.9122 27.6417 83.1533 26.4006Z" fill="#D64444"/>
</g>
<g clip-path="url(#clip2_961_512)">
<path d="M153.89 13.9686C157.747 13.9686 160.874 10.842 160.874 6.98525C160.874 3.12848 157.747 0.00195312 153.89 0.00195312C150.033 0.00195312 146.907 3.12848 146.907 6.98525C146.907 10.842 150.033 13.9686 153.89 13.9686Z" fill="#D64444"/>
<path d="M159.224 11.4932C153.04 18.8088 153.041 29.5209 159.229 36.8342L148.831 36.8826C154.95 29.5119 154.852 18.8005 148.599 11.5428L159.224 11.4932Z" fill="#D64444"/>
<path d="M154.05 47.9979C157.796 47.9979 160.833 44.9611 160.833 41.215C160.833 37.4689 157.796 34.4321 154.05 34.4321C150.304 34.4321 147.267 37.4689 147.267 41.215C147.267 44.9611 150.304 47.9979 154.05 47.9979Z" fill="#D64444"/>
<path d="M171.014 30.6692C174.871 30.6692 177.998 27.5427 177.998 23.6859C177.998 19.8292 174.871 16.7026 171.014 16.7026C167.157 16.7026 164.031 19.8292 164.031 23.6859C164.031 27.5427 167.157 30.6692 171.014 30.6692Z" fill="#D64444"/>
<path d="M166.552 29.0578C159.183 22.9372 148.471 23.0317 141.21 29.2819L141.072 18.8855C148.496 24.94 159.207 24.7494 166.41 18.4351L166.552 29.0582L166.552 29.0578Z" fill="#D64444"/>
<path d="M136.785 30.9242C140.531 30.9242 143.568 27.8874 143.568 24.1413C143.568 20.3952 140.531 17.3584 136.785 17.3584C133.039 17.3584 130.002 20.3952 130.002 24.1413C130.002 27.8874 133.039 30.9242 136.785 30.9242Z" fill="#D64444"/>
<path d="M159.517 21.5593C161.324 21.5593 162.789 20.0947 162.789 18.288C162.789 16.4812 161.324 15.0166 159.517 15.0166C157.71 15.0166 156.246 16.4812 156.246 18.288C156.246 20.0947 157.71 21.5593 159.517 21.5593Z" fill="#D64444"/>
<path d="M159.814 21.5456C155.344 21.9523 151.822 25.5265 151.48 30.001L147.996 26.5978C152.462 26.1513 155.952 22.5457 156.253 18.0684L159.814 21.546V21.5456Z" fill="#D64444"/>
<path d="M148.312 32.9369C150.067 32.9369 151.49 31.5142 151.49 29.7592C151.49 28.0042 150.067 26.5815 148.312 26.5815C146.557 26.5815 145.134 28.0042 145.134 29.7592C145.134 31.5142 146.557 32.9369 148.312 32.9369Z" fill="#D64444"/>
<path d="M159.737 32.762C161.544 32.762 163.009 31.2973 163.009 29.4906C163.009 27.6839 161.544 26.2192 159.737 26.2192C157.93 26.2192 156.465 27.6839 156.465 29.4906C156.465 31.2973 157.93 32.762 159.737 32.762Z" fill="#D64444"/>
<path d="M156.482 29.8152C156.036 25.3497 152.432 21.8587 147.954 21.5559L151.328 18.042C151.813 22.5032 155.448 25.9623 159.929 26.2249L156.482 29.8152H156.482Z" fill="#D64444"/>
<path d="M148.168 21.5633C149.923 21.5633 151.346 20.1406 151.346 18.3857C151.346 16.6307 149.923 15.208 148.168 15.208C146.413 15.208 144.99 16.6307 144.99 18.3857C144.99 20.1406 146.413 21.5633 148.168 21.5633Z" fill="#D64444"/>
</g>
<defs>
<clipPath id="clip0_961_512">
<rect width="48" height="48" fill="white"/>
</clipPath>
<clipPath id="clip1_961_512">
<rect width="48" height="48" fill="white" transform="translate(65)"/>
</clipPath>
<clipPath id="clip2_961_512">
<rect width="48" height="48" fill="white" transform="translate(130)"/>
</clipPath>
</defs>
</svg>
