<svg width="1360" height="100" viewBox="0 0 1360 100" fill="none" xmlns="http://www.w3.org/2000/svg">
<g clip-path="url(#clip0_1023_363)">
<path d="M1037.36 58.3749H1012.01L1024.68 25.2682L1037.36 58.3749ZM1156.02 95.8838H1196.05V4.04418H1161.68V52.3978L1125.4 4.04418H1081.83V78.8831L1052.83 4.04418H997.115L976.133 58.3749H942.046C940.328 69.1122 934.062 74.9819 923.069 74.9819C910.394 74.9819 903.305 65.1752 903.305 49.9282C903.305 34.6813 910.466 25.0893 923.069 25.0893C933.417 25.0893 940.077 30.5653 941.509 39.4057H979.319V36.9003C979.319 16.6426 961.775 -0.0717773 923.463 -0.0717773C882.144 -0.0717773 866.426 20.5796 866.426 50.0356C866.426 50.7156 866.426 51.3599 866.426 52.0399C861.27 45.7407 851.316 42.0542 834.881 39.692L810.963 36.2919C801.941 35.0034 796.319 33.9654 796.319 29.4916C796.319 25.9125 799.9 21.6533 809.639 21.6533C820.38 21.6533 826.539 25.8409 826.539 32.6412H864.993V30.6727C864.993 12.3835 846.697 0.357714 810.713 0.357714C773.726 0.357714 757.506 13.8151 757.506 32.7843C757.506 47.566 767.174 56.1916 789.946 59.3055L817.015 63.0993C826.682 64.4236 829.833 66.3921 829.833 70.4365C829.833 75.6619 824.856 78.5252 813.72 78.5252C801.189 78.5252 795.424 73.1566 795.424 65.712H755V67.8237C755 88.1888 774.227 100.036 812.038 100.036C846.948 100.036 867.213 92.3405 870.543 72.8344C877.525 89.5846 893.96 100.179 923.463 100.179C945.842 100.179 958.409 94.0943 965.928 84.896L961.667 95.9912H997.473L1002.7 82.6054H1046.67L1051.75 95.8123H1116.2V42.9848L1156.02 95.8838ZM1309.01 58.3749H1283.63L1296.3 25.1967L1309.01 58.3749ZM1360.04 95.8123L1324.59 4.04418H1268.73L1239.84 78.8831V4.04418H1204.64V95.8123H1269.09L1274.17 82.6054H1318.11L1323.23 95.8123H1360.04Z" fill="#FAFAFA"/>
</g>
<defs>
<clipPath id="clip0_1023_363">
<rect width="605" height="100" fill="white" transform="translate(755)"/>
</clipPath>
</defs>
</svg>
