<svg width="16" height="16" viewBox="0 0 16 16" fill="none" xmlns="http://www.w3.org/2000/svg">
<g clip-path="url(#clip0_1023_415)">
<path d="M8.00775 3.07973C8.79143 3.71476 9.29258 4.68489 9.29258 5.77215C9.29258 6.62025 8.9876 7.39712 8.48154 7.99912C9.43315 7.02205 10.0198 5.68781 10.0198 4.21615C10.0198 2.51353 9.23509 0.994468 8.00775 0C6.78054 0.994342 5.99573 2.51353 5.99573 4.21615C5.99573 5.68781 6.58235 7.02205 7.53384 7.99912C7.02777 7.39699 6.7228 6.62025 6.7228 5.77215C6.7228 4.68489 7.22395 3.71476 8.00763 3.07973H8.00775Z" fill="#5A8FFF"/>
<path d="M7.99654 12.9204C7.21047 12.2883 6.70566 11.3202 6.7015 10.2328C6.69835 9.3847 7.0003 8.6067 7.50422 8.00268C6.55639 8.98341 5.97481 10.3198 5.98023 11.7914C5.98666 13.4941 6.77715 15.0102 8.00814 15.9999C9.2317 15.0009 10.0107 13.4788 10.0043 11.7762C9.99873 10.3045 9.40707 8.97256 8.45192 7.99902C8.96026 8.59926 9.26813 9.37486 9.27141 10.223C9.27544 11.3102 8.77795 12.2822 7.99667 12.9202L7.99654 12.9204Z" fill="#5A8FFF"/>
<path d="M12.9204 7.99374C12.2876 8.77931 11.3188 9.28322 10.2316 9.28625C9.38347 9.28864 8.60584 8.98594 8.00219 8.48152C8.98205 9.43035 10.3179 10.0131 11.7896 10.0089C13.4922 10.0041 15.009 9.21502 16 7.98492C15.0021 6.76049 13.4808 5.98009 11.7781 5.98489C10.3065 5.98905 8.97385 6.57945 7.99942 7.53383C8.60004 7.026 9.37603 6.71889 10.2241 6.71649C11.3114 6.71346 12.2829 7.21183 12.9202 7.99374H12.9204Z" fill="#5A8FFF"/>
<path d="M3.07962 8.01078C3.70949 7.22282 4.67623 6.71537 5.7635 6.70819C6.6116 6.70264 7.39037 7.00244 7.9959 7.50447C7.01252 6.55942 5.67437 5.98162 4.20282 5.99133C2.50019 6.00255 0.986282 6.79732 0 8.03108C1.00255 9.25172 2.52679 10.0264 4.2293 10.0152C5.70097 10.0055 7.03131 9.41007 8.00208 8.45216C7.40335 8.96226 6.62862 9.27227 5.78052 9.27794C4.69325 9.28513 3.71983 8.79042 3.07962 8.0109V8.01078Z" fill="#5A8FFF"/>
</g>
<defs>
<clipPath id="clip0_1023_415">
<rect width="16" height="16" fill="white"/>
</clipPath>
</defs>
</svg>
