<svg width="1256" height="48" viewBox="0 0 1256 48" fill="none" xmlns="http://www.w3.org/2000/svg">
<g clip-path="url(#clip0_961_280)">
<path d="M23.5228 9.23918C25.8248 11.1443 27.2969 14.0547 27.2969 17.3165C27.2969 19.8608 26.4011 22.1913 24.9145 23.9974C27.7099 21.0661 29.4331 17.0634 29.4331 12.6485C29.4331 7.54059 27.1281 2.98341 23.5228 0C19.9178 2.98303 17.6124 7.54059 17.6124 12.6485C17.6124 17.0634 19.3357 21.0661 22.1306 23.9974C20.6441 22.191 19.7482 19.8608 19.7482 17.3165C19.7482 14.0547 21.2203 11.1443 23.5224 9.23918H23.5228Z" fill="#396BD7"/>
<path d="M23.4898 38.7613C21.1807 36.8649 19.6979 33.9605 19.6856 30.6984C19.6764 28.1541 20.5634 25.8201 22.0436 24.008C19.2594 26.9502 17.551 30.9594 17.5669 35.3743C17.5858 40.4822 19.9078 45.0307 23.5239 47.9997C27.1181 45.0027 29.4064 40.4364 29.3875 35.3286C29.3712 30.9136 27.6332 26.9177 24.8275 23.9971C26.3207 25.7978 27.2251 28.1246 27.2347 30.6689C27.2466 33.9307 25.7852 36.8467 23.4902 38.7605L23.4898 38.7613Z" fill="#396BD7"/>
<path d="M37.9536 23.981C36.0949 26.3377 33.2491 27.8494 30.0553 27.8585C27.564 27.8657 25.2797 26.9576 23.5065 25.4443C26.3848 28.2908 30.309 30.0389 34.632 30.0265C39.6335 30.0121 44.0891 27.6448 47 23.9545C44.0687 20.2812 39.5998 17.94 34.5983 17.9544C30.2753 17.9669 26.3607 19.7381 23.4983 22.6012C25.2627 21.0778 27.5421 20.1564 30.0334 20.1492C33.2273 20.1401 36.0812 21.6353 37.9532 23.981H37.9536Z" fill="#396BD7"/>
<path d="M9.0464 24.0316C10.8966 21.6677 13.7364 20.1454 16.9303 20.1238C19.4216 20.1072 21.7092 21.0066 23.488 22.5127C20.5993 19.6775 16.6684 17.9441 12.3458 17.9733C7.34429 18.0069 2.8972 20.3912 0 24.0925C2.94498 27.7544 7.42244 30.0786 12.4236 30.0449C16.7466 30.0158 20.6545 28.2295 23.5061 25.3558C21.7474 26.886 19.4716 27.8161 16.9803 27.8331C13.7864 27.8547 10.927 26.3705 9.0464 24.032V24.0316Z" fill="#396BD7"/>
</g>
<g clip-path="url(#clip1_961_280)">
<path d="M109.523 9.23918C111.825 11.1443 113.297 14.0547 113.297 17.3165C113.297 19.8608 112.401 22.1913 110.915 23.9974C113.71 21.0661 115.433 17.0634 115.433 12.6485C115.433 7.54059 113.128 2.98341 109.523 0C105.918 2.98303 103.612 7.54059 103.612 12.6485C103.612 17.0634 105.336 21.0661 108.131 23.9974C106.644 22.191 105.748 19.8608 105.748 17.3165C105.748 14.0547 107.22 11.1443 109.522 9.23918H109.523Z" fill="#396BD7"/>
<path d="M109.49 38.7613C107.181 36.8649 105.698 33.9605 105.686 30.6984C105.676 28.1541 106.563 25.8201 108.044 24.008C105.259 26.9502 103.551 30.9594 103.567 35.3743C103.586 40.4822 105.908 45.0307 109.524 47.9997C113.118 45.0027 115.406 40.4364 115.388 35.3286C115.371 30.9136 113.633 26.9177 110.827 23.9971C112.321 25.7978 113.225 28.1246 113.235 30.6689C113.247 33.9307 111.785 36.8467 109.49 38.7605L109.49 38.7613Z" fill="#396BD7"/>
<path d="M123.954 23.981C122.095 26.3377 119.249 27.8494 116.055 27.8585C113.564 27.8657 111.28 26.9576 109.506 25.4443C112.385 28.2908 116.309 30.0389 120.632 30.0265C125.633 30.0121 130.089 27.6448 133 23.9545C130.069 20.2812 125.6 17.94 120.598 17.9544C116.275 17.9669 112.361 19.7381 109.498 22.6012C111.263 21.0778 113.542 20.1564 116.033 20.1492C119.227 20.1401 122.081 21.6353 123.953 23.981H123.954Z" fill="#396BD7"/>
<path d="M95.0464 24.0316C96.8966 21.6677 99.7364 20.1454 102.93 20.1238C105.422 20.1072 107.709 21.0066 109.488 22.5127C106.599 19.6775 102.668 17.9441 98.3458 17.9733C93.3443 18.0069 88.8972 20.3912 86 24.0925C88.945 27.7544 93.4224 30.0786 98.4236 30.0449C102.747 30.0158 106.654 28.2295 109.506 25.3558C107.747 26.886 105.472 27.8161 102.98 27.8331C99.7864 27.8547 96.927 26.3705 95.0464 24.032V24.0316Z" fill="#396BD7"/>
</g>
<g clip-path="url(#clip2_961_280)">
<path d="M195.523 9.23918C197.825 11.1443 199.297 14.0547 199.297 17.3165C199.297 19.8608 198.401 22.1913 196.915 23.9974C199.71 21.0661 201.433 17.0634 201.433 12.6485C201.433 7.54059 199.128 2.98341 195.523 0C191.918 2.98303 189.612 7.54059 189.612 12.6485C189.612 17.0634 191.336 21.0661 194.131 23.9974C192.644 22.191 191.748 19.8608 191.748 17.3165C191.748 14.0547 193.22 11.1443 195.522 9.23918H195.523Z" fill="#396BD7"/>
<path d="M195.49 38.7613C193.181 36.8649 191.698 33.9605 191.686 30.6984C191.676 28.1541 192.563 25.8201 194.044 24.008C191.259 26.9502 189.551 30.9594 189.567 35.3743C189.586 40.4822 191.908 45.0307 195.524 47.9997C199.118 45.0027 201.406 40.4364 201.388 35.3286C201.371 30.9136 199.633 26.9177 196.828 23.9971C198.321 25.7978 199.225 28.1246 199.235 30.6689C199.247 33.9307 197.785 36.8467 195.49 38.7605L195.49 38.7613Z" fill="#396BD7"/>
<path d="M209.954 23.981C208.095 26.3377 205.249 27.8494 202.055 27.8585C199.564 27.8657 197.28 26.9576 195.506 25.4443C198.385 28.2908 202.309 30.0389 206.632 30.0265C211.633 30.0121 216.089 27.6448 219 23.9545C216.069 20.2812 211.6 17.94 206.598 17.9544C202.275 17.9669 198.361 19.7381 195.498 22.6012C197.263 21.0778 199.542 20.1564 202.033 20.1492C205.227 20.1401 208.081 21.6353 209.953 23.981H209.954Z" fill="#396BD7"/>
<path d="M181.046 24.0316C182.897 21.6677 185.736 20.1454 188.93 20.1238C191.422 20.1072 193.709 21.0066 195.488 22.5127C192.599 19.6775 188.668 17.9441 184.346 17.9733C179.344 18.0069 174.897 20.3912 172 24.0925C174.945 27.7544 179.422 30.0786 184.424 30.0449C188.747 30.0158 192.654 28.2295 195.506 25.3558C193.747 26.886 191.472 27.8161 188.98 27.8331C185.786 27.8547 182.927 26.3705 181.046 24.032V24.0316Z" fill="#396BD7"/>
</g>
<g clip-path="url(#clip3_961_280)">
<path d="M282.023 9.23918C284.374 11.1443 285.878 14.0547 285.878 17.3165C285.878 19.8608 284.963 22.1913 283.445 23.9974C286.299 21.0661 288.059 17.0634 288.059 12.6485C288.059 7.54059 285.705 2.98341 282.023 0C278.342 2.98303 275.987 7.54059 275.987 12.6485C275.987 17.0634 277.747 21.0661 280.602 23.9974C279.083 22.191 278.168 19.8608 278.168 17.3165C278.168 14.0547 279.672 11.1443 282.023 9.23918H282.023Z" fill="#396BD7"/>
<path d="M281.99 38.7613C279.631 36.8649 278.117 33.9605 278.104 30.6984C278.095 28.1541 279.001 25.8201 280.513 24.008C277.669 26.9502 275.924 30.9594 275.941 35.3743C275.96 40.4822 278.331 45.0307 282.024 47.9997C285.695 45.0027 288.032 40.4364 288.013 35.3286C287.996 30.9136 286.221 26.9177 283.356 23.9971C284.881 25.7978 285.804 28.1246 285.814 30.6689C285.826 33.9307 284.334 36.8467 281.99 38.7605L281.99 38.7613Z" fill="#396BD7"/>
<path d="M296.761 23.981C294.863 26.3377 291.957 27.8494 288.695 27.8585C286.15 27.8657 283.818 26.9576 282.007 25.4443C284.946 28.2908 288.954 30.0389 293.369 30.0265C298.477 30.0121 303.027 27.6448 306 23.9545C303.006 20.2812 298.442 17.94 293.334 17.9544C288.919 17.9669 284.922 19.7381 281.998 22.6012C283.8 21.0778 286.128 20.1564 288.672 20.1492C291.934 20.1401 294.849 21.6353 296.761 23.981H296.761Z" fill="#396BD7"/>
<path d="M267.239 24.0316C269.128 21.6677 272.029 20.1454 275.29 20.1238C277.835 20.1072 280.171 21.0066 281.988 22.5127C279.038 19.6775 275.023 17.9441 270.608 17.9733C265.501 18.0069 260.959 20.3912 258 24.0925C261.008 27.7544 265.58 30.0786 270.688 30.0449C275.103 30.0158 279.094 28.2295 282.006 25.3558C280.21 26.886 277.886 27.8161 275.342 27.8331C272.08 27.8547 269.159 26.3705 267.239 24.032V24.0316Z" fill="#396BD7"/>
</g>
<g clip-path="url(#clip4_961_280)">
<path d="M369.023 9.23918C371.374 11.1443 372.878 14.0547 372.878 17.3165C372.878 19.8608 371.963 22.1913 370.445 23.9974C373.299 21.0661 375.059 17.0634 375.059 12.6485C375.059 7.54059 372.705 2.98341 369.023 0C365.342 2.98303 362.987 7.54059 362.987 12.6485C362.987 17.0634 364.747 21.0661 367.602 23.9974C366.083 22.191 365.168 19.8608 365.168 17.3165C365.168 14.0547 366.672 11.1443 369.023 9.23918H369.023Z" fill="#396BD7"/>
<path d="M368.99 38.7613C366.631 36.8649 365.117 33.9605 365.104 30.6984C365.095 28.1541 366.001 25.8201 367.513 24.008C364.669 26.9502 362.924 30.9594 362.941 35.3743C362.96 40.4822 365.331 45.0307 369.024 47.9997C372.695 45.0027 375.032 40.4364 375.013 35.3286C374.996 30.9136 373.221 26.9177 370.356 23.9971C371.881 25.7978 372.804 28.1246 372.814 30.6689C372.826 33.9307 371.334 36.8467 368.99 38.7605L368.99 38.7613Z" fill="#396BD7"/>
<path d="M383.761 23.981C381.863 26.3377 378.957 27.8494 375.695 27.8585C373.15 27.8657 370.818 26.9576 369.007 25.4443C371.946 28.2908 375.954 30.0389 380.369 30.0265C385.477 30.0121 390.027 27.6448 393 23.9545C390.006 20.2812 385.442 17.94 380.334 17.9544C375.919 17.9669 371.922 19.7381 368.998 22.6012C370.8 21.0778 373.128 20.1564 375.672 20.1492C378.934 20.1401 381.849 21.6353 383.761 23.981H383.761Z" fill="#396BD7"/>
<path d="M354.239 24.0316C356.128 21.6677 359.029 20.1454 362.29 20.1238C364.835 20.1072 367.171 21.0066 368.988 22.5127C366.038 19.6775 362.023 17.9441 357.608 17.9733C352.501 18.0069 347.959 20.3912 345 24.0925C348.008 27.7544 352.58 30.0786 357.688 30.0449C362.103 30.0158 366.094 28.2295 369.006 25.3558C367.21 26.886 364.886 27.8161 362.342 27.8331C359.08 27.8547 356.159 26.3705 354.239 24.032V24.0316Z" fill="#396BD7"/>
</g>
<g clip-path="url(#clip5_961_280)">
<path d="M456.023 9.23918C458.374 11.1443 459.878 14.0547 459.878 17.3165C459.878 19.8608 458.963 22.1913 457.445 23.9974C460.299 21.0661 462.059 17.0634 462.059 12.6485C462.059 7.54059 459.705 2.98341 456.023 0C452.342 2.98303 449.987 7.54059 449.987 12.6485C449.987 17.0634 451.747 21.0661 454.602 23.9974C453.083 22.191 452.168 19.8608 452.168 17.3165C452.168 14.0547 453.672 11.1443 456.023 9.23918H456.023Z" fill="#396BD7"/>
<path d="M455.99 38.7613C453.631 36.8649 452.117 33.9605 452.104 30.6984C452.095 28.1541 453.001 25.8201 454.513 24.008C451.669 26.9502 449.924 30.9594 449.941 35.3743C449.96 40.4822 452.331 45.0307 456.024 47.9997C459.695 45.0027 462.032 40.4364 462.013 35.3286C461.996 30.9136 460.221 26.9177 457.356 23.9971C458.881 25.7978 459.804 28.1246 459.814 30.6689C459.826 33.9307 458.334 36.8467 455.99 38.7605L455.99 38.7613Z" fill="#396BD7"/>
<path d="M470.761 23.981C468.863 26.3377 465.957 27.8494 462.695 27.8585C460.15 27.8657 457.818 26.9576 456.007 25.4443C458.946 28.2908 462.954 30.0389 467.369 30.0265C472.477 30.0121 477.027 27.6448 480 23.9545C477.006 20.2812 472.442 17.94 467.334 17.9544C462.919 17.9669 458.922 19.7381 455.998 22.6012C457.8 21.0778 460.128 20.1564 462.672 20.1492C465.934 20.1401 468.849 21.6353 470.761 23.981H470.761Z" fill="#396BD7"/>
<path d="M441.239 24.0316C443.128 21.6677 446.029 20.1454 449.29 20.1238C451.835 20.1072 454.171 21.0066 455.988 22.5127C453.038 19.6775 449.023 17.9441 444.608 17.9733C439.501 18.0069 434.959 20.3912 432 24.0925C435.008 27.7544 439.58 30.0786 444.688 30.0449C449.103 30.0158 453.094 28.2295 456.006 25.3558C454.21 26.886 451.886 27.8161 449.342 27.8331C446.08 27.8547 443.159 26.3705 441.239 24.032V24.0316Z" fill="#396BD7"/>
</g>
<g clip-path="url(#clip6_961_280)">
<path d="M542.523 9.23918C544.825 11.1443 546.297 14.0547 546.297 17.3165C546.297 19.8608 545.401 22.1913 543.915 23.9974C546.71 21.0661 548.433 17.0634 548.433 12.6485C548.433 7.54059 546.128 2.98341 542.523 0C538.918 2.98303 536.612 7.54059 536.612 12.6485C536.612 17.0634 538.336 21.0661 541.131 23.9974C539.644 22.191 538.748 19.8608 538.748 17.3165C538.748 14.0547 540.22 11.1443 542.522 9.23918H542.523Z" fill="#396BD7"/>
<path d="M542.49 38.7613C540.181 36.8649 538.698 33.9605 538.686 30.6984C538.676 28.1541 539.563 25.8201 541.044 24.008C538.259 26.9502 536.551 30.9594 536.567 35.3743C536.586 40.4822 538.908 45.0307 542.524 47.9997C546.118 45.0027 548.406 40.4364 548.388 35.3286C548.371 30.9136 546.633 26.9177 543.827 23.9971C545.321 25.7978 546.225 28.1246 546.235 30.6689C546.247 33.9307 544.785 36.8467 542.49 38.7605L542.49 38.7613Z" fill="#396BD7"/>
<path d="M556.954 23.981C555.095 26.3377 552.249 27.8494 549.055 27.8585C546.564 27.8657 544.28 26.9576 542.506 25.4443C545.385 28.2908 549.309 30.0389 553.632 30.0265C558.634 30.0121 563.089 27.6448 566 23.9545C563.069 20.2812 558.6 17.94 553.598 17.9544C549.275 17.9669 545.361 19.7381 542.498 22.6012C544.263 21.0778 546.542 20.1564 549.033 20.1492C552.227 20.1401 555.081 21.6353 556.953 23.981H556.954Z" fill="#396BD7"/>
<path d="M528.046 24.0316C529.897 21.6677 532.736 20.1454 535.93 20.1238C538.422 20.1072 540.709 21.0066 542.488 22.5127C539.599 19.6775 535.668 17.9441 531.346 17.9733C526.344 18.0069 521.897 20.3912 519 24.0925C521.945 27.7544 526.422 30.0786 531.424 30.0449C535.747 30.0158 539.654 28.2295 542.506 25.3558C540.747 26.886 538.472 27.8161 535.98 27.8331C532.786 27.8547 529.927 26.3705 528.046 24.032V24.0316Z" fill="#396BD7"/>
</g>
<g clip-path="url(#clip7_961_280)">
<path d="M628.523 9.23918C630.825 11.1443 632.297 14.0547 632.297 17.3165C632.297 19.8608 631.401 22.1913 629.915 23.9974C632.71 21.0661 634.433 17.0634 634.433 12.6485C634.433 7.54059 632.128 2.98341 628.523 0C624.918 2.98303 622.612 7.54059 622.612 12.6485C622.612 17.0634 624.336 21.0661 627.131 23.9974C625.644 22.191 624.748 19.8608 624.748 17.3165C624.748 14.0547 626.22 11.1443 628.522 9.23918H628.523Z" fill="#396BD7"/>
<path d="M628.49 38.7613C626.181 36.8649 624.698 33.9605 624.686 30.6984C624.676 28.1541 625.563 25.8201 627.044 24.008C624.259 26.9502 622.551 30.9594 622.567 35.3743C622.586 40.4822 624.908 45.0307 628.524 47.9997C632.118 45.0027 634.406 40.4364 634.388 35.3286C634.371 30.9136 632.633 26.9177 629.827 23.9971C631.321 25.7978 632.225 28.1246 632.235 30.6689C632.247 33.9307 630.785 36.8467 628.49 38.7605L628.49 38.7613Z" fill="#396BD7"/>
<path d="M642.954 23.981C641.095 26.3377 638.249 27.8494 635.055 27.8585C632.564 27.8657 630.28 26.9576 628.506 25.4443C631.385 28.2908 635.309 30.0389 639.632 30.0265C644.634 30.0121 649.089 27.6448 652 23.9545C649.069 20.2812 644.6 17.94 639.598 17.9544C635.275 17.9669 631.361 19.7381 628.498 22.6012C630.263 21.0778 632.542 20.1564 635.033 20.1492C638.227 20.1401 641.081 21.6353 642.953 23.981H642.954Z" fill="#396BD7"/>
<path d="M614.046 24.0316C615.897 21.6677 618.736 20.1454 621.93 20.1238C624.422 20.1072 626.709 21.0066 628.488 22.5127C625.599 19.6775 621.668 17.9441 617.346 17.9733C612.344 18.0069 607.897 20.3912 605 24.0925C607.945 27.7544 612.422 30.0786 617.424 30.0449C621.747 30.0158 625.654 28.2295 628.506 25.3558C626.747 26.886 624.472 27.8161 621.98 27.8331C618.786 27.8547 615.927 26.3705 614.046 24.032V24.0316Z" fill="#396BD7"/>
</g>
<g clip-path="url(#clip8_961_280)">
<path d="M714.523 9.23918C716.825 11.1443 718.297 14.0547 718.297 17.3165C718.297 19.8608 717.401 22.1913 715.915 23.9974C718.71 21.0661 720.433 17.0634 720.433 12.6485C720.433 7.54059 718.128 2.98341 714.523 0C710.918 2.98303 708.612 7.54059 708.612 12.6485C708.612 17.0634 710.336 21.0661 713.131 23.9974C711.644 22.191 710.748 19.8608 710.748 17.3165C710.748 14.0547 712.22 11.1443 714.522 9.23918H714.523Z" fill="#396BD7"/>
<path d="M714.49 38.7613C712.181 36.8649 710.698 33.9605 710.686 30.6984C710.676 28.1541 711.563 25.8201 713.044 24.008C710.259 26.9502 708.551 30.9594 708.567 35.3743C708.586 40.4822 710.908 45.0307 714.524 47.9997C718.118 45.0027 720.406 40.4364 720.388 35.3286C720.371 30.9136 718.633 26.9177 715.827 23.9971C717.321 25.7978 718.225 28.1246 718.235 30.6689C718.247 33.9307 716.785 36.8467 714.49 38.7605L714.49 38.7613Z" fill="#396BD7"/>
<path d="M728.954 23.981C727.095 26.3377 724.249 27.8494 721.055 27.8585C718.564 27.8657 716.28 26.9576 714.506 25.4443C717.385 28.2908 721.309 30.0389 725.632 30.0265C730.634 30.0121 735.089 27.6448 738 23.9545C735.069 20.2812 730.6 17.94 725.598 17.9544C721.275 17.9669 717.361 19.7381 714.498 22.6012C716.263 21.0778 718.542 20.1564 721.033 20.1492C724.227 20.1401 727.081 21.6353 728.953 23.981H728.954Z" fill="#396BD7"/>
<path d="M700.046 24.0316C701.897 21.6677 704.736 20.1454 707.93 20.1238C710.422 20.1072 712.709 21.0066 714.488 22.5127C711.599 19.6775 707.668 17.9441 703.346 17.9733C698.344 18.0069 693.897 20.3912 691 24.0925C693.945 27.7544 698.422 30.0786 703.424 30.0449C707.747 30.0158 711.654 28.2295 714.506 25.3558C712.747 26.886 710.472 27.8161 707.98 27.8331C704.786 27.8547 701.927 26.3705 700.046 24.032V24.0316Z" fill="#396BD7"/>
</g>
<g clip-path="url(#clip9_961_280)">
<path d="M800.523 9.23918C802.825 11.1443 804.297 14.0547 804.297 17.3165C804.297 19.8608 803.401 22.1913 801.915 23.9974C804.71 21.0661 806.433 17.0634 806.433 12.6485C806.433 7.54059 804.128 2.98341 800.523 0C796.918 2.98303 794.612 7.54059 794.612 12.6485C794.612 17.0634 796.336 21.0661 799.131 23.9974C797.644 22.191 796.748 19.8608 796.748 17.3165C796.748 14.0547 798.22 11.1443 800.522 9.23918H800.523Z" fill="#396BD7"/>
<path d="M800.49 38.7613C798.181 36.8649 796.698 33.9605 796.686 30.6984C796.676 28.1541 797.563 25.8201 799.044 24.008C796.259 26.9502 794.551 30.9594 794.567 35.3743C794.586 40.4822 796.908 45.0307 800.524 47.9997C804.118 45.0027 806.406 40.4364 806.388 35.3286C806.371 30.9136 804.633 26.9177 801.827 23.9971C803.321 25.7978 804.225 28.1246 804.235 30.6689C804.247 33.9307 802.785 36.8467 800.49 38.7605L800.49 38.7613Z" fill="#396BD7"/>
<path d="M814.954 23.981C813.095 26.3377 810.249 27.8494 807.055 27.8585C804.564 27.8657 802.28 26.9576 800.506 25.4443C803.385 28.2908 807.309 30.0389 811.632 30.0265C816.634 30.0121 821.089 27.6448 824 23.9545C821.069 20.2812 816.6 17.94 811.598 17.9544C807.275 17.9669 803.361 19.7381 800.498 22.6012C802.263 21.0778 804.542 20.1564 807.033 20.1492C810.227 20.1401 813.081 21.6353 814.953 23.981H814.954Z" fill="#396BD7"/>
<path d="M786.046 24.0316C787.897 21.6677 790.736 20.1454 793.93 20.1238C796.422 20.1072 798.709 21.0066 800.488 22.5127C797.599 19.6775 793.668 17.9441 789.346 17.9733C784.344 18.0069 779.897 20.3912 777 24.0925C779.945 27.7544 784.422 30.0786 789.424 30.0449C793.747 30.0158 797.654 28.2295 800.506 25.3558C798.747 26.886 796.472 27.8161 793.98 27.8331C790.786 27.8547 787.927 26.3705 786.046 24.032V24.0316Z" fill="#396BD7"/>
</g>
<g clip-path="url(#clip10_961_280)">
<path d="M886.523 9.23918C888.825 11.1443 890.297 14.0547 890.297 17.3165C890.297 19.8608 889.401 22.1913 887.915 23.9974C890.71 21.0661 892.433 17.0634 892.433 12.6485C892.433 7.54059 890.128 2.98341 886.523 0C882.918 2.98303 880.612 7.54059 880.612 12.6485C880.612 17.0634 882.336 21.0661 885.131 23.9974C883.644 22.191 882.748 19.8608 882.748 17.3165C882.748 14.0547 884.22 11.1443 886.522 9.23918H886.523Z" fill="#396BD7"/>
<path d="M886.49 38.7613C884.181 36.8649 882.698 33.9605 882.686 30.6984C882.676 28.1541 883.563 25.8201 885.044 24.008C882.259 26.9502 880.551 30.9594 880.567 35.3743C880.586 40.4822 882.908 45.0307 886.524 47.9997C890.118 45.0027 892.406 40.4364 892.388 35.3286C892.371 30.9136 890.633 26.9177 887.827 23.9971C889.321 25.7978 890.225 28.1246 890.235 30.6689C890.247 33.9307 888.785 36.8467 886.49 38.7605L886.49 38.7613Z" fill="#396BD7"/>
<path d="M900.954 23.981C899.095 26.3377 896.249 27.8494 893.055 27.8585C890.564 27.8657 888.28 26.9576 886.506 25.4443C889.385 28.2908 893.309 30.0389 897.632 30.0265C902.634 30.0121 907.089 27.6448 910 23.9545C907.069 20.2812 902.6 17.94 897.598 17.9544C893.275 17.9669 889.361 19.7381 886.498 22.6012C888.263 21.0778 890.542 20.1564 893.033 20.1492C896.227 20.1401 899.081 21.6353 900.953 23.981H900.954Z" fill="#396BD7"/>
<path d="M872.046 24.0316C873.897 21.6677 876.736 20.1454 879.93 20.1238C882.422 20.1072 884.709 21.0066 886.488 22.5127C883.599 19.6775 879.668 17.9441 875.346 17.9733C870.344 18.0069 865.897 20.3912 863 24.0925C865.945 27.7544 870.422 30.0786 875.424 30.0449C879.747 30.0158 883.654 28.2295 886.506 25.3558C884.747 26.886 882.472 27.8161 879.98 27.8331C876.786 27.8547 873.927 26.3705 872.046 24.032V24.0316Z" fill="#396BD7"/>
</g>
<g clip-path="url(#clip11_961_280)">
<path d="M972.523 9.23918C974.825 11.1443 976.297 14.0547 976.297 17.3165C976.297 19.8608 975.401 22.1913 973.915 23.9974C976.71 21.0661 978.433 17.0634 978.433 12.6485C978.433 7.54059 976.128 2.98341 972.523 0C968.918 2.98303 966.612 7.54059 966.612 12.6485C966.612 17.0634 968.336 21.0661 971.131 23.9974C969.644 22.191 968.748 19.8608 968.748 17.3165C968.748 14.0547 970.22 11.1443 972.522 9.23918H972.523Z" fill="#396BD7"/>
<path d="M972.49 38.7613C970.181 36.8649 968.698 33.9605 968.686 30.6984C968.676 28.1541 969.563 25.8201 971.044 24.008C968.259 26.9502 966.551 30.9594 966.567 35.3743C966.586 40.4822 968.908 45.0307 972.524 47.9997C976.118 45.0027 978.406 40.4364 978.388 35.3286C978.371 30.9136 976.633 26.9177 973.827 23.9971C975.321 25.7978 976.225 28.1246 976.235 30.6689C976.247 33.9307 974.785 36.8467 972.49 38.7605L972.49 38.7613Z" fill="#396BD7"/>
<path d="M986.954 23.981C985.095 26.3377 982.249 27.8494 979.055 27.8585C976.564 27.8657 974.28 26.9576 972.506 25.4443C975.385 28.2908 979.309 30.0389 983.632 30.0265C988.633 30.0121 993.089 27.6448 996 23.9545C993.069 20.2812 988.6 17.94 983.598 17.9544C979.275 17.9669 975.361 19.7381 972.498 22.6012C974.263 21.0778 976.542 20.1564 979.033 20.1492C982.227 20.1401 985.081 21.6353 986.953 23.981H986.954Z" fill="#396BD7"/>
<path d="M958.046 24.0316C959.897 21.6677 962.736 20.1454 965.93 20.1238C968.422 20.1072 970.709 21.0066 972.488 22.5127C969.599 19.6775 965.668 17.9441 961.346 17.9733C956.344 18.0069 951.897 20.3912 949 24.0925C951.945 27.7544 956.422 30.0786 961.424 30.0449C965.747 30.0158 969.654 28.2295 972.506 25.3558C970.747 26.886 968.472 27.8161 965.98 27.8331C962.786 27.8547 959.927 26.3705 958.046 24.032V24.0316Z" fill="#396BD7"/>
</g>
<g clip-path="url(#clip12_961_280)">
<path d="M1059.02 9.23918C1061.37 11.1443 1062.88 14.0547 1062.88 17.3165C1062.88 19.8608 1061.96 22.1913 1060.44 23.9974C1063.3 21.0661 1065.06 17.0634 1065.06 12.6485C1065.06 7.54059 1062.71 2.98341 1059.02 0C1055.34 2.98303 1052.99 7.54059 1052.99 12.6485C1052.99 17.0634 1054.75 21.0661 1057.6 23.9974C1056.08 22.191 1055.17 19.8608 1055.17 17.3165C1055.17 14.0547 1056.67 11.1443 1059.02 9.23918H1059.02Z" fill="#396BD7"/>
<path d="M1058.99 38.7613C1056.63 36.8649 1055.12 33.9605 1055.1 30.6984C1055.1 28.1541 1056 25.8201 1057.51 24.008C1054.67 26.9502 1052.92 30.9594 1052.94 35.3743C1052.96 40.4822 1055.33 45.0307 1059.02 47.9997C1062.7 45.0027 1065.03 40.4364 1065.01 35.3286C1065 30.9136 1063.22 26.9177 1060.36 23.9971C1061.88 25.7978 1062.8 28.1246 1062.81 30.6689C1062.83 33.9307 1061.33 36.8467 1058.99 38.7605L1058.99 38.7613Z" fill="#396BD7"/>
<path d="M1073.76 23.981C1071.86 26.3377 1068.96 27.8494 1065.69 27.8585C1063.15 27.8657 1060.82 26.9576 1059.01 25.4443C1061.95 28.2908 1065.95 30.0389 1070.37 30.0265C1075.48 30.0121 1080.03 27.6448 1083 23.9545C1080.01 20.2812 1075.44 17.94 1070.33 17.9544C1065.92 17.9669 1061.92 19.7381 1059 22.6012C1060.8 21.0778 1063.13 20.1564 1065.67 20.1492C1068.93 20.1401 1071.85 21.6353 1073.76 23.981H1073.76Z" fill="#396BD7"/>
<path d="M1044.24 24.0316C1046.13 21.6677 1049.03 20.1454 1052.29 20.1238C1054.83 20.1072 1057.17 21.0066 1058.99 22.5127C1056.04 19.6775 1052.02 17.9441 1047.61 17.9733C1042.5 18.0069 1037.96 20.3912 1035 24.0925C1038.01 27.7544 1042.58 30.0786 1047.69 30.0449C1052.1 30.0158 1056.09 28.2295 1059.01 25.3558C1057.21 26.886 1054.89 27.8161 1052.34 27.8331C1049.08 27.8547 1046.16 26.3705 1044.24 24.032V24.0316Z" fill="#396BD7"/>
</g>
<g clip-path="url(#clip13_961_280)">
<path d="M1146.02 9.23918C1148.37 11.1443 1149.88 14.0547 1149.88 17.3165C1149.88 19.8608 1148.96 22.1913 1147.44 23.9974C1150.3 21.0661 1152.06 17.0634 1152.06 12.6485C1152.06 7.54059 1149.71 2.98341 1146.02 0C1142.34 2.98303 1139.99 7.54059 1139.99 12.6485C1139.99 17.0634 1141.75 21.0661 1144.6 23.9974C1143.08 22.191 1142.17 19.8608 1142.17 17.3165C1142.17 14.0547 1143.67 11.1443 1146.02 9.23918H1146.02Z" fill="#396BD7"/>
<path d="M1145.99 38.7613C1143.63 36.8649 1142.12 33.9605 1142.1 30.6984C1142.1 28.1541 1143 25.8201 1144.51 24.008C1141.67 26.9502 1139.92 30.9594 1139.94 35.3743C1139.96 40.4822 1142.33 45.0307 1146.02 47.9997C1149.7 45.0027 1152.03 40.4364 1152.01 35.3286C1152 30.9136 1150.22 26.9177 1147.36 23.9971C1148.88 25.7978 1149.8 28.1246 1149.81 30.6689C1149.83 33.9307 1148.33 36.8467 1145.99 38.7605L1145.99 38.7613Z" fill="#396BD7"/>
<path d="M1160.76 23.981C1158.86 26.3377 1155.96 27.8494 1152.69 27.8585C1150.15 27.8657 1147.82 26.9576 1146.01 25.4443C1148.95 28.2908 1152.95 30.0389 1157.37 30.0265C1162.48 30.0121 1167.03 27.6448 1170 23.9545C1167.01 20.2812 1162.44 17.94 1157.33 17.9544C1152.92 17.9669 1148.92 19.7381 1146 22.6012C1147.8 21.0778 1150.13 20.1564 1152.67 20.1492C1155.93 20.1401 1158.85 21.6353 1160.76 23.981H1160.76Z" fill="#396BD7"/>
<path d="M1131.24 24.0316C1133.13 21.6677 1136.03 20.1454 1139.29 20.1238C1141.83 20.1072 1144.17 21.0066 1145.99 22.5127C1143.04 19.6775 1139.02 17.9441 1134.61 17.9733C1129.5 18.0069 1124.96 20.3912 1122 24.0925C1125.01 27.7544 1129.58 30.0786 1134.69 30.0449C1139.1 30.0158 1143.09 28.2295 1146.01 25.3558C1144.21 26.886 1141.89 27.8161 1139.34 27.8331C1136.08 27.8547 1133.16 26.3705 1131.24 24.032V24.0316Z" fill="#396BD7"/>
</g>
<g clip-path="url(#clip14_961_280)">
<path d="M1232.52 9.23918C1234.82 11.1443 1236.3 14.0547 1236.3 17.3165C1236.3 19.8608 1235.4 22.1913 1233.91 23.9974C1236.71 21.0661 1238.43 17.0634 1238.43 12.6485C1238.43 7.54059 1236.13 2.98341 1232.52 0C1228.92 2.98303 1226.61 7.54059 1226.61 12.6485C1226.61 17.0634 1228.34 21.0661 1231.13 23.9974C1229.64 22.191 1228.75 19.8608 1228.75 17.3165C1228.75 14.0547 1230.22 11.1443 1232.52 9.23918H1232.52Z" fill="#396BD7"/>
<path d="M1232.49 38.7613C1230.18 36.8649 1228.7 33.9605 1228.69 30.6984C1228.68 28.1541 1229.56 25.8201 1231.04 24.008C1228.26 26.9502 1226.55 30.9594 1226.57 35.3743C1226.59 40.4822 1228.91 45.0307 1232.52 47.9997C1236.12 45.0027 1238.41 40.4364 1238.39 35.3286C1238.37 30.9136 1236.63 26.9177 1233.83 23.9971C1235.32 25.7978 1236.23 28.1246 1236.23 30.6689C1236.25 33.9307 1234.79 36.8467 1232.49 38.7605L1232.49 38.7613Z" fill="#396BD7"/>
<path d="M1246.95 23.981C1245.09 26.3377 1242.25 27.8494 1239.06 27.8585C1236.56 27.8657 1234.28 26.9576 1232.51 25.4443C1235.38 28.2908 1239.31 30.0389 1243.63 30.0265C1248.63 30.0121 1253.09 27.6448 1256 23.9545C1253.07 20.2812 1248.6 17.94 1243.6 17.9544C1239.28 17.9669 1235.36 19.7381 1232.5 22.6012C1234.26 21.0778 1236.54 20.1564 1239.03 20.1492C1242.23 20.1401 1245.08 21.6353 1246.95 23.981H1246.95Z" fill="#396BD7"/>
<path d="M1218.05 24.0316C1219.9 21.6677 1222.74 20.1454 1225.93 20.1238C1228.42 20.1072 1230.71 21.0066 1232.49 22.5127C1229.6 19.6775 1225.67 17.9441 1221.35 17.9733C1216.34 18.0069 1211.9 20.3912 1209 24.0925C1211.94 27.7544 1216.42 30.0786 1221.42 30.0449C1225.75 30.0158 1229.65 28.2295 1232.51 25.3558C1230.75 26.886 1228.47 27.8161 1225.98 27.8331C1222.79 27.8547 1219.93 26.3705 1218.05 24.032V24.0316Z" fill="#396BD7"/>
</g>
<defs>
<clipPath id="clip0_961_280">
<rect width="47" height="48" fill="white"/>
</clipPath>
<clipPath id="clip1_961_280">
<rect width="47" height="48" fill="white" transform="translate(86)"/>
</clipPath>
<clipPath id="clip2_961_280">
<rect width="47" height="48" fill="white" transform="translate(172)"/>
</clipPath>
<clipPath id="clip3_961_280">
<rect width="48" height="48" fill="white" transform="translate(258)"/>
</clipPath>
<clipPath id="clip4_961_280">
<rect width="48" height="48" fill="white" transform="translate(345)"/>
</clipPath>
<clipPath id="clip5_961_280">
<rect width="48" height="48" fill="white" transform="translate(432)"/>
</clipPath>
<clipPath id="clip6_961_280">
<rect width="47" height="48" fill="white" transform="translate(519)"/>
</clipPath>
<clipPath id="clip7_961_280">
<rect width="47" height="48" fill="white" transform="translate(605)"/>
</clipPath>
<clipPath id="clip8_961_280">
<rect width="47" height="48" fill="white" transform="translate(691)"/>
</clipPath>
<clipPath id="clip9_961_280">
<rect width="47" height="48" fill="white" transform="translate(777)"/>
</clipPath>
<clipPath id="clip10_961_280">
<rect width="47" height="48" fill="white" transform="translate(863)"/>
</clipPath>
<clipPath id="clip11_961_280">
<rect width="47" height="48" fill="white" transform="translate(949)"/>
</clipPath>
<clipPath id="clip12_961_280">
<rect width="48" height="48" fill="white" transform="translate(1035)"/>
</clipPath>
<clipPath id="clip13_961_280">
<rect width="48" height="48" fill="white" transform="translate(1122)"/>
</clipPath>
<clipPath id="clip14_961_280">
<rect width="47" height="48" fill="white" transform="translate(1209)"/>
</clipPath>
</defs>
</svg>
