<svg width="178" height="48" viewBox="0 0 178 48" fill="none" xmlns="http://www.w3.org/2000/svg">
<g clip-path="url(#clip0_961_486)">
<path d="M16.8291 16.9841C19.5564 14.2568 19.5565 9.83509 16.8294 7.10794C14.1022 4.38079 9.68054 4.38092 6.95324 7.10823C4.22593 9.83553 4.2258 14.2572 6.95295 16.9844C9.6801 19.7115 14.1018 19.7114 16.8291 16.9841Z" fill="#231F20"/>
<path d="M18.8502 11.4624C19.6501 21.0084 27.2261 28.5816 36.7724 29.3779L29.4543 36.7644C28.5692 27.2257 20.9258 19.721 11.3726 19.0102L18.8502 11.4624Z" fill="#231F20"/>
<path d="M41.0043 40.9338C43.6534 38.2848 43.6535 33.9899 41.0046 31.3411C38.3557 28.6922 34.0609 28.6923 31.4119 31.3413C28.7628 33.9904 28.7627 38.2852 31.4116 40.9341C34.0605 43.583 38.3553 43.5828 41.0043 40.9338Z" fill="#231F20"/>
<path d="M40.7467 16.6847C43.474 13.9574 43.4741 9.53568 40.747 6.80853C38.0199 4.08138 33.5981 4.08151 30.8708 6.80882C28.1435 9.53612 28.1434 13.9578 30.8706 16.685C33.5977 19.4121 38.0194 19.412 40.7467 16.6847Z" fill="#231F20"/>
<path d="M36.452 18.7005C26.9129 19.5836 19.4052 27.2249 18.6911 36.7781L11.2418 29.5248C20.7725 28.5565 28.2114 20.848 28.8403 11.2892L36.452 18.701L36.452 18.7005Z" fill="#231F20"/>
<path d="M16.7232 41.069C19.3722 38.4199 19.3724 34.1251 16.7235 31.4762C14.0746 28.8273 9.77978 28.8275 7.13074 31.4765C4.4817 34.1255 4.48157 38.4204 7.13046 41.0692C9.77935 43.7181 14.0742 43.718 16.7232 41.069Z" fill="#231F20"/>
<path d="M26.1755 18.3728C27.4531 17.0951 27.4531 15.0238 26.1756 13.7462C24.8981 12.4687 22.8267 12.4687 21.5491 13.7464C20.2714 15.024 20.2714 17.0953 21.5489 18.3729C22.8265 19.6504 24.8978 19.6504 26.1755 18.3728Z" fill="#231F20"/>
<path d="M26.3754 18.1534C23.5027 21.6012 23.539 26.6195 26.4616 30.0249L21.5912 30.0824C24.4333 26.6089 24.3516 21.5915 21.3989 18.2123L26.3757 18.1536L26.3754 18.1534Z" fill="#231F20"/>
<path d="M26.2972 34.3413C27.5383 33.1002 27.5383 31.0882 26.2974 29.8472C25.0564 28.6063 23.0444 28.6063 21.8034 29.8474C20.5623 31.0884 20.5623 33.1004 21.8032 34.3414C23.0442 35.5824 25.0562 35.5823 26.2972 34.3413Z" fill="#231F20"/>
<path d="M34.2524 26.139C35.53 24.8613 35.5301 22.79 34.2525 21.5124C32.975 20.2349 30.9036 20.2349 29.626 21.5126C28.3483 22.7902 28.3483 24.8616 29.6258 26.1391C30.9034 27.4167 32.9748 27.4166 34.2524 26.139Z" fill="#231F20"/>
<path d="M29.8666 26.3571C26.3942 23.5144 21.3767 23.5947 17.9965 26.5467L17.8973 21.6766C21.3948 24.4881 26.4117 24.3632 29.7655 21.3809L29.8669 26.3568L29.8666 26.3571Z" fill="#231F20"/>
<path d="M18.1533 26.4006C19.3943 25.1595 19.3943 23.1475 18.1534 21.9065C16.9124 20.6656 14.9004 20.6656 13.6594 21.9067C12.4183 23.1477 12.4183 25.1597 13.6592 26.4007C14.9002 27.6417 16.9122 27.6416 18.1533 26.4006Z" fill="#231F20"/>
</g>
<g clip-path="url(#clip1_961_486)">
<path d="M88.8904 13.9686C92.7474 13.9686 95.8741 10.8421 95.8741 6.98528C95.8741 3.12851 92.7474 0.00198364 88.8904 0.00198364C85.0334 0.00198364 81.9067 3.12851 81.9067 6.98528C81.9067 10.8421 85.0334 13.9686 88.8904 13.9686Z" fill="#231F20"/>
<path d="M94.2239 11.4933C88.0395 18.8089 88.0415 29.5211 94.2287 36.8343L83.8309 36.8827C89.9499 29.512 89.8519 18.8006 83.5994 11.5429L94.2239 11.4933Z" fill="#231F20"/>
<path d="M89.0498 47.998C92.7961 47.998 95.8331 44.9612 95.8331 41.2151C95.8331 37.4691 92.7961 34.4323 89.0498 34.4323C85.3035 34.4323 82.2665 37.4691 82.2665 41.2151C82.2665 44.9612 85.3035 47.998 89.0498 47.998Z" fill="#231F20"/>
<path d="M106.014 30.6691C109.871 30.6691 112.998 27.5426 112.998 23.6858C112.998 19.8291 109.871 16.7025 106.014 16.7025C102.157 16.7025 99.0306 19.8291 99.0306 23.6858C99.0306 27.5426 102.157 30.6691 106.014 30.6691Z" fill="#231F20"/>
<path d="M101.552 29.0577C94.1826 22.937 83.4706 23.0315 76.2105 29.2817L76.0719 18.8853C83.4958 24.9398 94.2066 24.7493 101.41 18.4349L101.552 29.0581L101.552 29.0577Z" fill="#231F20"/>
<path d="M71.7849 30.9243C75.5312 30.9243 78.5682 27.8874 78.5682 24.1414C78.5682 20.3953 75.5312 17.3585 71.7849 17.3585C68.0386 17.3585 65.0016 20.3953 65.0016 24.1414C65.0016 27.8874 68.0386 30.9243 71.7849 30.9243Z" fill="#231F20"/>
<path d="M94.5173 21.5594C96.3241 21.5594 97.7888 20.0948 97.7888 18.288C97.7888 16.4813 96.3241 15.0167 94.5173 15.0167C92.7105 15.0167 91.2457 16.4813 91.2457 18.288C91.2457 20.0948 92.7105 21.5594 94.5173 21.5594Z" fill="#231F20"/>
<path d="M94.8138 21.5456C90.3445 21.9523 86.8217 25.5264 86.4804 30.001L82.9958 26.5977C87.4615 26.1513 90.9516 22.5456 91.2532 18.0683L94.8138 21.546V21.5456Z" fill="#231F20"/>
<path d="M83.3119 32.9369C85.067 32.9369 86.4898 31.5142 86.4898 29.7593C86.4898 28.0043 85.067 26.5816 83.3119 26.5816C81.5569 26.5816 80.1341 28.0043 80.1341 29.7593C80.1341 31.5142 81.5569 32.9369 83.3119 32.9369Z" fill="#231F20"/>
<path d="M94.7369 32.7621C96.5438 32.7621 98.0085 31.2975 98.0085 29.4908C98.0085 27.684 96.5438 26.2194 94.7369 26.2194C92.9301 26.2194 91.4654 27.684 91.4654 29.4908C91.4654 31.2975 92.9301 32.7621 94.7369 32.7621Z" fill="#231F20"/>
<path d="M91.4815 29.8152C91.0362 25.3497 87.4315 21.8586 82.954 21.5559L86.3275 18.042C86.8126 22.5031 90.4484 25.9623 94.9287 26.2249L91.4819 29.8152H91.4815Z" fill="#231F20"/>
<path d="M83.1682 21.5633C84.9233 21.5633 86.346 20.1406 86.346 18.3857C86.346 16.6307 84.9233 15.208 83.1682 15.208C81.4131 15.208 79.9904 16.6307 79.9904 18.3857C79.9904 20.1406 81.4131 21.5633 83.1682 21.5633Z" fill="#231F20"/>
</g>
<g clip-path="url(#clip2_961_486)">
<path d="M146.829 16.9841C149.556 14.2568 149.557 9.83509 146.829 7.10794C144.102 4.38079 139.681 4.38092 136.953 7.10823C134.226 9.83553 134.226 14.2572 136.953 16.9844C139.68 19.7115 144.102 19.7114 146.829 16.9841Z" fill="#231F20"/>
<path d="M148.85 11.4624C149.65 21.0084 157.226 28.5816 166.772 29.3779L159.454 36.7644C158.569 27.2257 150.926 19.721 141.373 19.0102L148.85 11.4624Z" fill="#231F20"/>
<path d="M171.004 40.9338C173.653 38.2848 173.653 33.9899 171.005 31.3411C168.356 28.6922 164.061 28.6923 161.412 31.3413C158.763 33.9904 158.763 38.2852 161.412 40.9341C164.06 43.583 168.355 43.5828 171.004 40.9338Z" fill="#231F20"/>
<path d="M170.747 16.6847C173.474 13.9574 173.474 9.53568 170.747 6.80853C168.02 4.08138 163.598 4.08151 160.871 6.80882C158.144 9.53612 158.143 13.9578 160.871 16.685C163.598 19.4121 168.019 19.412 170.747 16.6847Z" fill="#231F20"/>
<path d="M166.452 18.7005C156.913 19.5836 149.405 27.2249 148.691 36.7781L141.242 29.5248C150.772 28.5565 158.211 20.848 158.84 11.2892L166.452 18.701L166.452 18.7005Z" fill="#231F20"/>
<path d="M146.723 41.069C149.372 38.4199 149.372 34.1251 146.723 31.4762C144.075 28.8273 139.78 28.8275 137.131 31.4765C134.482 34.1255 134.482 38.4204 137.13 41.0692C139.779 43.7181 144.074 43.718 146.723 41.069Z" fill="#231F20"/>
<path d="M156.175 18.3728C157.453 17.0951 157.453 15.0238 156.176 13.7462C154.898 12.4687 152.827 12.4687 151.549 13.7464C150.271 15.024 150.271 17.0953 151.549 18.3729C152.826 19.6504 154.898 19.6504 156.175 18.3728Z" fill="#231F20"/>
<path d="M156.375 18.1534C153.503 21.6012 153.539 26.6195 156.462 30.0249L151.591 30.0824C154.433 26.6089 154.352 21.5915 151.399 18.2123L156.376 18.1536L156.375 18.1534Z" fill="#231F20"/>
<path d="M156.297 34.3413C157.538 33.1002 157.538 31.0882 156.297 29.8472C155.056 28.6063 153.044 28.6063 151.803 29.8474C150.562 31.0884 150.562 33.1004 151.803 34.3414C153.044 35.5824 155.056 35.5823 156.297 34.3413Z" fill="#231F20"/>
<path d="M164.252 26.139C165.53 24.8613 165.53 22.79 164.253 21.5124C162.975 20.2349 160.904 20.2349 159.626 21.5126C158.348 22.7902 158.348 24.8616 159.626 26.1391C160.903 27.4167 162.975 27.4166 164.252 26.139Z" fill="#231F20"/>
<path d="M159.867 26.3571C156.394 23.5144 151.377 23.5947 147.997 26.5467L147.897 21.6766C151.395 24.4881 156.412 24.3632 159.765 21.3809L159.867 26.3568L159.867 26.3571Z" fill="#231F20"/>
<path d="M148.153 26.4006C149.394 25.1595 149.394 23.1475 148.153 21.9065C146.912 20.6656 144.9 20.6656 143.659 21.9067C142.418 23.1477 142.418 25.1597 143.659 26.4007C144.9 27.6417 146.912 27.6416 148.153 26.4006Z" fill="#231F20"/>
</g>
<defs>
<clipPath id="clip0_961_486">
<rect width="48" height="48" fill="white"/>
</clipPath>
<clipPath id="clip1_961_486">
<rect width="48" height="48" fill="white" transform="translate(65)"/>
</clipPath>
<clipPath id="clip2_961_486">
<rect width="48" height="48" fill="white" transform="translate(130)"/>
</clipPath>
</defs>
</svg>
