<svg width="2798" height="2798" viewBox="0 0 2798 2798" fill="none" xmlns="http://www.w3.org/2000/svg">
<path d="M2371.01 1091.22C2134.82 992.471 1780.83 929.752 1386.55 929.752C1292.69 929.752 1201.09 933.316 1112.85 940.055C535.656 984.196 100.84 1164.96 100.84 1381.67C100.84 1497.18 224.333 1602.46 427.055 1682.28C663.287 1781.11 1017.42 1843.9 1411.91 1843.9C1505.82 1843.9 1597.44 1840.33 1685.72 1833.59C2262.88 1789.43 2697.59 1608.67 2697.59 1391.98C2697.59 1276.41 2573.96 1171.06 2370.97 1091.22H2371.01ZM1119.71 1707.97C912.28 1666.37 730.349 1609.16 584.611 1544.08C439.201 1479.17 344.692 1401.72 318.023 1319.63C303.951 1276.31 308.621 1233.99 334.594 1194.29C457.964 995.892 1061.85 937.105 1678.74 1065.7C1886.19 1107.3 2068.17 1164.53 2213.9 1229.6C2359.27 1294.52 2453.76 1371.94 2480.43 1454.04C2494.5 1497.36 2489.83 1539.68 2463.86 1579.35C2340.49 1777.75 1736.6 1836.54 1119.71 1707.95V1707.97Z" fill="black"/>
<path d="M2302.29 732.54C2093.23 645.138 1779.94 589.629 1430.97 589.629C1347.89 589.629 1266.84 592.783 1188.74 598.744C677.868 637.805 293.051 797.799 293.051 989.604C293.051 1091.84 402.349 1185.01 581.781 1255.68C790.853 1343.14 1104.31 1398.71 1453.44 1398.71C1536.56 1398.71 1617.66 1395.56 1695.8 1389.58C2206.61 1350.5 2591.36 1190.5 2591.36 998.719C2591.36 896.426 2481.94 803.207 2302.29 732.519V732.54ZM1194.8 1278.4C1011.21 1241.59 850.193 1190.93 721.21 1133.35C592.515 1075.9 508.882 1007.36 485.265 934.688C472.811 896.344 476.949 858.88 499.931 823.751C609.126 648.149 1143.59 596.122 1689.57 709.947C1873.18 746.776 2034.24 797.41 2163.22 855.009C2291.88 912.464 2375.51 980.98 2399.11 1053.65C2411.56 1092 2407.43 1129.46 2384.44 1164.57C2275.25 1340.17 1740.78 1392.2 1194.8 1278.4Z" fill="black"/>
<path d="M582.317 2064.25C791.368 2151.65 1104.66 2207.16 1453.63 2207.16C1536.71 2207.16 1617.76 2204.01 1695.86 2198.05C2206.73 2158.99 2591.55 1998.99 2591.55 1807.19C2591.55 1704.96 2482.25 1611.78 2302.82 1541.11C2093.75 1453.65 1780.3 1398.08 1431.16 1398.08C1348.04 1398.08 1266.95 1401.23 1188.8 1407.21C677.994 1446.3 293.238 1606.29 293.238 1798.07C293.238 1900.37 402.659 1993.59 582.317 2064.27V2064.25ZM1689.8 1518.4C1873.39 1555.2 2034.41 1605.86 2163.39 1663.44C2292.09 1720.89 2375.72 1789.43 2399.34 1862.1C2411.79 1900.45 2407.65 1937.91 2384.67 1973.04C2275.48 2148.64 1741.01 2200.67 1195.03 2086.84C1011.42 2050.02 850.36 1999.38 721.377 1941.78C592.723 1884.33 509.09 1815.81 485.493 1743.14C473.039 1704.79 477.177 1667.33 500.159 1632.22C609.355 1456.62 1143.82 1404.59 1689.8 1518.4Z" fill="black"/>
<path d="M1445.11 2350.67C1316.56 2350.67 1191.83 2325.49 1074.42 2275.82C961.009 2227.85 859.187 2159.19 771.724 2071.75C684.281 1984.31 615.601 1882.46 567.65 1769.05C517.979 1651.62 492.805 1526.9 492.805 1398.34C492.805 1269.79 517.979 1145.07 567.65 1027.66C615.622 914.266 684.281 812.423 771.724 724.96C859.167 637.518 961.009 568.838 1074.42 520.887C1191.85 471.215 1316.56 446.041 1445.11 446.041C1573.66 446.041 1698.38 471.215 1815.79 520.887C1929.21 568.858 2031.03 637.518 2118.49 724.96C2205.93 812.403 2274.61 914.245 2322.57 1027.66C2372.24 1145.09 2397.41 1269.79 2397.41 1398.34C2397.41 1526.9 2372.24 1651.62 2322.57 1769.05C2274.59 1882.44 2205.93 1984.29 2118.49 2071.75C2031.05 2159.19 1929.21 2227.87 1815.79 2275.82C1698.36 2325.49 1573.66 2350.67 1445.11 2350.67ZM1445.11 495.057C1323.15 495.057 1204.86 518.941 1093.51 566.031C985.957 611.524 889.359 676.661 806.381 759.618C723.425 842.575 658.288 939.194 612.795 1046.75C565.704 1158.1 541.821 1276.39 541.821 1398.34C541.821 1520.3 565.704 1638.59 612.795 1749.94C658.288 1857.49 723.425 1954.09 806.381 2037.07C889.338 2120.03 985.957 2185.16 1093.51 2230.66C1204.86 2277.75 1323.15 2301.63 1445.11 2301.63C1567.06 2301.63 1685.35 2277.75 1796.7 2230.66C1904.26 2185.16 2000.86 2120.03 2083.83 2037.07C2166.79 1954.11 2231.93 1857.49 2277.42 1749.94C2324.51 1638.59 2348.39 1520.3 2348.39 1398.34C2348.39 1276.39 2324.51 1158.1 2277.42 1046.75C2231.93 939.194 2166.79 842.595 2083.83 759.618C2000.88 676.661 1904.26 611.524 1796.7 566.031C1685.35 518.941 1567.06 495.057 1445.11 495.057Z" fill="black"/>
</svg>
